<svg width="22" height="17" viewBox="0 0 22 17" fill="none" xmlns="http://www.w3.org/2000/svg">
<path fill-rule="evenodd" clip-rule="evenodd" d="M10.8866 10.414L10.9995 10.414L11.2521 10.4149C13.1827 10.4276 17.5946 10.6226 17.5946 13.613C17.5946 16.5837 13.3365 16.7775 11.2822 16.7901L10.5211 16.7901C8.59038 16.7774 4.1776 16.5826 4.1776 13.596C4.1776 10.6215 8.59038 10.4275 10.5211 10.4149L10.7737 10.414C10.8129 10.414 10.8505 10.414 10.8866 10.414ZM10.8866 11.914C8.5106 11.914 5.6776 12.206 5.6776 13.596C5.6776 14.9545 8.3415 15.2722 10.6694 15.2902L10.8866 15.291C13.2626 15.291 16.0946 15 16.0946 13.613C16.0946 12.209 13.2626 11.914 10.8866 11.914ZM18.8402 10.0082C21.2632 10.3712 21.7722 11.5092 21.7722 12.4002C21.7722 12.9442 21.5582 13.9372 20.1282 14.4822C20.0402 14.5152 19.9502 14.5312 19.8612 14.5312C19.5592 14.5312 19.2742 14.3472 19.1602 14.0482C19.0122 13.6612 19.2072 13.2272 19.5942 13.0802C20.2722 12.8222 20.2722 12.5372 20.2722 12.4002C20.2722 11.9622 19.7152 11.6562 18.6172 11.4922C18.2082 11.4302 17.9252 11.0492 17.9862 10.6382C18.0472 10.2282 18.4272 9.9552 18.8402 10.0082ZM3.786 10.6382C3.847 11.0492 3.564 11.4302 3.155 11.4922C2.057 11.6562 1.5 11.9622 1.5 12.4002C1.5 12.5372 1.5 12.8212 2.179 13.0802C2.566 13.2272 2.761 13.6612 2.613 14.0482C2.499 14.3472 2.214 14.5312 1.912 14.5312C1.823 14.5312 1.733 14.5152 1.645 14.4822C0.214 13.9362 0 12.9432 0 12.4002C0 11.5102 0.509 10.3712 2.933 10.0082C3.346 9.9562 3.724 10.2282 3.786 10.6382ZM10.8866 0C13.4066 0 15.4556 2.05 15.4556 4.569C15.4556 7.088 13.4066 9.138 10.8866 9.138H10.8596C9.6396 9.134 8.4966 8.656 7.6406 7.792C6.7826 6.929 6.3136 5.783 6.31856 4.566C6.31856 2.05 8.3676 0 10.8866 0ZM10.8866 1.5C9.1946 1.5 7.81858 2.877 7.81858 4.569C7.8156 5.389 8.1296 6.156 8.7046 6.735C9.2796 7.314 10.0456 7.635 10.8616 7.638L10.8866 8.388V7.638C12.5786 7.638 13.9556 6.262 13.9556 4.569C13.9556 2.877 12.5786 1.5 10.8866 1.5ZM17.0756 0.9795C18.8336 1.2685 20.1106 2.7725 20.1106 4.5555C20.1066 6.3505 18.7656 7.8905 16.9906 8.1395C16.9556 8.1445 16.9206 8.1465 16.8866 8.1465C16.5186 8.1465 16.1976 7.8755 16.1446 7.5005C16.0876 7.0895 16.3726 6.7105 16.7836 6.6535C17.8236 6.5075 18.6086 5.6055 18.6106 4.5535C18.6106 3.5105 17.8626 2.6285 16.8316 2.4595C16.4236 2.3925 16.1466 2.0065 16.2136 1.5975C16.2816 1.1885 16.6646 0.9145 17.0756 0.9795ZM5.5596 1.5975C5.6266 2.0065 5.3496 2.3925 4.9416 2.4595C3.9106 2.6285 3.1626 3.5105 3.1626 4.5555C3.1646 5.6055 3.9496 6.5085 4.9886 6.6535C5.3996 6.7105 5.6846 7.0895 5.6276 7.5005C5.5746 7.8755 5.2536 8.1465 4.8856 8.1465C4.8516 8.1465 4.8166 8.1445 4.7816 8.1395C3.0066 7.8905 1.6666 6.3505 1.6626 4.5575C1.6626 2.7725 2.9396 1.2685 4.6976 0.9795C5.1186 0.9135 5.4916 1.1905 5.5596 1.5975Z" fill="#06113E"/>
</svg>
