<svg width="20" height="21" viewBox="0 0 20 21" fill="none" xmlns="http://www.w3.org/2000/svg">
<path fill-rule="evenodd" clip-rule="evenodd" d="M10.2693 0.916992C12.7806 0.916992 15.1407 1.94091 16.9134 3.80083C20.5777 7.64349 20.5777 13.8952 16.9134 17.7378C15.1171 19.6225 12.6985 20.6198 10.2483 20.6198C8.91269 20.6198 7.56832 20.3237 6.31048 19.7132C5.93986 19.5574 5.59284 19.4107 5.34372 19.4107C5.05701 19.4126 4.67153 19.5519 4.29916 19.6867C3.53519 19.9617 2.58416 20.3045 1.8805 19.5693C1.17947 18.8332 1.50289 17.8387 1.76337 17.0384C1.89187 16.6442 2.02386 16.2372 2.02386 15.9292C2.02386 15.6762 1.9076 15.3536 1.72928 14.8888C0.0920796 11.1809 0.849057 6.71216 3.6261 3.80174C5.39878 1.94183 7.758 0.916992 10.2693 0.916992ZM10.2702 2.29199C8.10852 2.29199 6.07797 3.17383 4.55265 4.77433C2.16284 7.27866 1.5125 11.1241 2.93293 14.3443C3.13747 14.8751 3.33502 15.3921 3.33502 15.9292C3.33502 16.4655 3.15932 17.0054 3.0046 17.4821C2.87699 17.8744 2.68381 18.4666 2.80793 18.5967C2.92943 18.7287 3.4976 18.5207 3.87259 18.3859C4.32276 18.2246 4.83324 18.0394 5.33934 18.0357C5.84633 18.0357 6.32446 18.2374 6.83057 18.451C9.93103 19.9543 13.5979 19.2705 15.9868 16.7662C19.1389 13.4588 19.1389 8.07891 15.9868 4.77341C14.4607 3.17291 12.431 2.29199 10.2702 2.29199ZM13.7202 10.2328C14.2027 10.2328 14.5943 10.6426 14.5943 11.1495C14.5943 11.6564 14.2027 12.0661 13.7202 12.0661C13.2377 12.0661 12.8426 11.6564 12.8426 11.1495C12.8426 10.6426 13.2298 10.2328 13.7123 10.2328H13.7202ZM10.2161 10.2328C10.6986 10.2328 11.0902 10.6426 11.0902 11.1495C11.0902 11.6564 10.6986 12.0661 10.2161 12.0661C9.73357 12.0661 9.33847 11.6564 9.33847 11.1495C9.33847 10.6426 9.72483 10.2328 10.2082 10.2328H10.2161ZM6.71161 10.2328C7.19411 10.2328 7.58571 10.6426 7.58571 11.1495C7.58571 11.6564 7.19411 12.0661 6.71161 12.0661C6.2291 12.0661 5.834 11.6564 5.834 11.1495C5.834 10.6426 6.22123 10.2328 6.70374 10.2328H6.71161Z" fill="#0D0D0D" fill-opacity="0.6"/>
</svg>
