<svg width="17" height="20" viewBox="0 0 17 20" fill="none" xmlns="http://www.w3.org/2000/svg">
<path fill-rule="evenodd" clip-rule="evenodd" d="M6.37606 17.8702C6.82699 18.3835 7.40589 18.6655 8.00655 18.6655H8.00742C8.6107 18.6655 9.19221 18.3835 9.64401 17.8693C9.88602 17.5962 10.2986 17.5739 10.5659 17.8203C10.834 18.0668 10.8558 18.4894 10.6146 18.7625C9.91126 19.5605 8.98589 20 8.00742 20H8.00568C7.02982 19.9991 6.10619 19.5596 5.40542 18.7616C5.16428 18.4885 5.18605 18.0659 5.45417 17.8203C5.72229 17.573 6.13492 17.5953 6.37606 17.8702ZM8.0499 0.872559C11.9194 0.872559 14.5188 3.95252 14.5188 6.82875C14.5188 8.30823 14.887 8.93543 15.2779 9.60089C15.6644 10.2575 16.1023 11.003 16.1023 12.4122C15.7985 16.0126 12.1205 16.3062 8.0499 16.3062C3.97932 16.3062 0.300477 16.0126 0.000133593 12.4691C-0.00246636 11.003 0.435409 10.2575 0.821922 9.60089L0.958373 9.36616C1.29434 8.77606 1.58102 8.13418 1.58102 6.82875C1.58102 3.95252 4.18041 0.872559 8.0499 0.872559ZM8.0499 2.20703C5.00741 2.20703 2.88681 4.64288 2.88681 6.82875C2.88681 8.67833 2.38452 9.53328 1.94055 10.2877C1.5845 10.8935 1.30332 11.3722 1.30332 12.4122C1.4487 14.0901 2.53251 14.9717 8.0499 14.9717C13.5368 14.9717 14.6546 14.0509 14.7991 12.3543C14.7965 11.3722 14.5153 10.8935 14.1593 10.2877C13.7153 9.53328 13.213 8.67833 13.213 6.82875C13.213 4.64288 11.0924 2.20703 8.0499 2.20703Z" fill="#0D0D0D" fill-opacity="0.6"/>
</svg>
