<svg width="17" height="20" viewBox="0 0 17 20" fill="none" xmlns="http://www.w3.org/2000/svg">
<path fill-rule="evenodd" clip-rule="evenodd" d="M6.37593 17.8702C6.82687 18.3835 7.40577 18.6655 8.00643 18.6655H8.0073C8.61058 18.6655 9.19209 18.3835 9.64389 17.8693C9.8859 17.5962 10.2985 17.5739 10.5658 17.8203C10.8339 18.0668 10.8557 18.4894 10.6145 18.7625C9.91114 19.5605 8.98577 20 8.0073 20H8.00556C7.0297 19.9991 6.10607 19.5596 5.4053 18.7616C5.16416 18.4885 5.18592 18.0659 5.45405 17.8203C5.72217 17.573 6.1348 17.5953 6.37593 17.8702ZM8.04978 0.872559C11.9193 0.872559 14.5187 3.95252 14.5187 6.82875C14.5187 8.30823 14.8869 8.93543 15.2778 9.60089C15.6643 10.2575 16.1022 11.003 16.1022 12.4122C15.7983 16.0126 12.1204 16.3062 8.04978 16.3062C3.9792 16.3062 0.300355 16.0126 1.15226e-05 12.4691C-0.00258843 11.003 0.435286 10.2575 0.8218 9.60089L0.95825 9.36616C1.29421 8.77606 1.5809 8.13418 1.5809 6.82875C1.5809 3.95252 4.18029 0.872559 8.04978 0.872559ZM8.04978 2.20703C5.00729 2.20703 2.88669 4.64288 2.88669 6.82875C2.88669 8.67833 2.3844 9.53328 1.94043 10.2877C1.58438 10.8935 1.3032 11.3722 1.3032 12.4122C1.44858 14.0901 2.53238 14.9717 8.04978 14.9717C13.5367 14.9717 14.6545 14.0509 14.799 12.3543C14.7964 11.3722 14.5152 10.8935 14.1591 10.2877C13.7152 9.53328 13.2129 8.67833 13.2129 6.82875C13.2129 4.64288 11.0923 2.20703 8.04978 2.20703Z" fill="#0D0D0D" fill-opacity="0.6"/>
</svg>
